<?xml version="1.0" encoding="utf-8"?>
<!-- Generator: Adobe Illustrator 24.2.1, SVG Export Plug-In . SVG Version: 6.00 Build 0)  -->
<svg version="1.1" id="Capa_1" xmlns="http://www.w3.org/2000/svg" xmlns:xlink="http://www.w3.org/1999/xlink" x="0px" y="0px"
	 viewBox="0 0 65 65" style="enable-background:new 0 0 65 65;" xml:space="preserve">
<style type="text/css">
	.st0{fill:none;stroke:#37464C;stroke-width:2;stroke-linecap:round;stroke-linejoin:round;}
	.st1{fill:none;stroke:#37464C;stroke-width:2;stroke-linejoin:round;}
	.st2{fill:none;stroke:#403D37;stroke-width:4;stroke-linecap:round;stroke-linejoin:round;stroke-miterlimit:10;}
	.st3{fill:#34444D;}
	.st4{fill:#B3B9BC;}
	.st5{fill:#FFFFFF;}
	.st6{fill:none;stroke:#FFFFFF;stroke-linejoin:round;stroke-miterlimit:10;}
	.st7{fill:none;stroke:#D9DCDE;stroke-miterlimit:10;}
	.st8{fill:none;stroke:#011520;stroke-width:2;stroke-linejoin:round;stroke-miterlimit:10;}
	.st9{fill:none;stroke:#011520;stroke-width:2;stroke-linecap:round;stroke-linejoin:round;stroke-miterlimit:10;}
	.st10{fill:none;stroke:#011520;stroke-width:2;stroke-miterlimit:10;}
	.st11{fill:none;stroke:#011520;stroke-width:2;stroke-linecap:round;stroke-miterlimit:10;}
	.st12{fill:none;stroke:#011520;stroke-width:2;stroke-linejoin:round;}
	.st13{fill:none;stroke:#011520;stroke-width:2;stroke-linecap:round;stroke-linejoin:round;}
	.st14{fill:none;stroke:#011520;stroke-width:2;}
	.st15{fill:#3D3D3D;}
	.st16{fill:none;stroke:#343434;stroke-width:1.8;stroke-linecap:round;stroke-linejoin:round;stroke-miterlimit:10;}
	.st17{fill:none;stroke:#2A2A2A;stroke-width:2;stroke-linecap:round;stroke-linejoin:round;stroke-miterlimit:10;}
	.st18{clip-path:url(#SVGID_2_);}
	
		.st19{clip-path:url(#SVGID_4_);fill:none;stroke:#2A2A2A;stroke-width:2;stroke-linecap:round;stroke-linejoin:round;stroke-miterlimit:10;}
	
		.st20{clip-path:url(#SVGID_6_);fill:none;stroke:#2A2A2A;stroke-width:2;stroke-linecap:round;stroke-linejoin:round;stroke-miterlimit:10;}
	.st21{clip-path:url(#SVGID_6_);}
	
		.st22{clip-path:url(#SVGID_8_);fill:none;stroke:#2A2A2A;stroke-width:2;stroke-linecap:round;stroke-linejoin:round;stroke-miterlimit:10;}
	.st23{clip-path:url(#SVGID_10_);}
	.st24{fill:none;stroke:#404046;stroke-width:2;stroke-linecap:round;stroke-miterlimit:10;}
	.st25{fill:none;stroke:#404046;stroke-width:2;stroke-linejoin:round;stroke-miterlimit:10;}
	.st26{fill:none;stroke:#404046;stroke-width:2;stroke-linecap:round;stroke-linejoin:round;stroke-miterlimit:10;}
	.st27{fill:none;stroke:#404046;stroke-width:2;stroke-miterlimit:10;}
	.st28{fill:#404046;}
	
		.st29{clip-path:url(#SVGID_12_);fill:none;stroke:#2A2A2A;stroke-width:2;stroke-linecap:round;stroke-linejoin:round;stroke-miterlimit:10;}
	
		.st30{clip-path:url(#SVGID_14_);fill:none;stroke:#2A2A2A;stroke-width:2;stroke-linecap:round;stroke-linejoin:round;stroke-miterlimit:10;}
	.st31{clip-path:url(#SVGID_14_);}
	.st32{clip-path:url(#SVGID_16_);}
	.st33{fill:none;}
	.st34{clip-path:url(#SVGID_18_);}
	
		.st35{fill-rule:evenodd;clip-rule:evenodd;fill:none;stroke:#343434;stroke-width:1.8;stroke-linecap:round;stroke-linejoin:round;stroke-miterlimit:10;}
	.st36{fill:none;stroke:#394552;stroke-width:2.5;stroke-linecap:round;stroke-linejoin:round;stroke-miterlimit:10;}
	.st37{fill:none;stroke:#394552;stroke-width:2.5;stroke-linecap:round;stroke-miterlimit:10;}
	.st38{fill:none;stroke:#394552;stroke-width:2.5;stroke-miterlimit:10;}
	.st39{fill:none;stroke:#394552;stroke-width:2.5;stroke-linecap:round;stroke-linejoin:bevel;stroke-miterlimit:10;}
	.st40{fill:none;stroke:#394552;stroke-width:2.5;stroke-linejoin:round;stroke-miterlimit:10;}
	.st41{fill:#394552;stroke:#394552;stroke-width:2.5;stroke-miterlimit:10;}
	.st42{fill:none;stroke:#394552;stroke-width:2.5;stroke-linecap:round;}
	.st43{fill:none;stroke:#EE2B7B;stroke-linecap:round;stroke-linejoin:round;stroke-miterlimit:10;}
	.st44{fill:none;stroke:#4D4D4D;stroke-width:2;stroke-linecap:round;stroke-linejoin:round;stroke-miterlimit:10;}
	.st45{fill:none;stroke:#4D4D4D;stroke-width:2;stroke-linejoin:round;stroke-miterlimit:10;}
	.st46{fill:none;stroke:#4D4D4D;stroke-width:2;stroke-miterlimit:10;}
	.st47{fill:none;stroke:#4D4D4D;stroke-width:2;stroke-linecap:round;stroke-miterlimit:10;}
	.st48{fill:#4D4D4D;}
	.st49{clip-path:url(#SVGID_20_);}
	.st50{fill:none;stroke:#3F3C36;stroke-width:4;stroke-linecap:round;stroke-linejoin:round;stroke-miterlimit:10;}
	.st51{fill:none;stroke:#403D37;stroke-width:4;stroke-miterlimit:10;}
	.st52{fill:#272525;}
	.st53{fill:none;stroke:#EE2B7B;stroke-width:1.3;stroke-linecap:round;stroke-linejoin:round;stroke-miterlimit:10;}
	.st54{fill:#FFFFFF;stroke:#EE2B7B;stroke-width:1.3;stroke-linecap:round;stroke-linejoin:round;stroke-miterlimit:10;}
	.st55{fill:#EE2B7B;}
	.st56{fill:none;stroke:#EE2B7B;stroke-width:0.75;stroke-linecap:round;stroke-linejoin:round;stroke-miterlimit:10;}
</style>
<g>
	<g>
		<g>
			<g>
				<path class="st55" d="M12.7,26.7c-4.6,0-8.3-3.7-8.3-8.3s3.7-8.3,8.3-8.3s8.3,3.7,8.3,8.3S17.2,26.7,12.7,26.7z M12.7,11.9
					c-3.6,0-6.5,2.9-6.5,6.5s2.9,6.5,6.5,6.5s6.5-2.9,6.5-6.5S16.2,11.9,12.7,11.9z"/>
			</g>
			<g>
				<path class="st55" d="M27.8,54.9h-23c-0.2,0-0.4-0.1-0.6-0.2C2.8,53.5,2,51.8,2,50V32.5c0-3.5,2.8-6.3,6.3-6.3h6.1
					c3.5,0,6.3,2.8,6.3,6.3v5.8h11.2c2.4,0,4.3,1.9,4.3,4.3c0,2.4-1.9,4.3-4.3,4.3h-6.7c2.2,1.6,3.6,4.2,3.6,7.2
					C28.7,54.5,28.3,54.9,27.8,54.9z M5.1,53.1h21.7c-0.5-3.5-3.5-6.2-7.1-6.2H13c-0.5,0-0.9-0.4-0.9-0.9v-9.4
					c0-0.5,0.4-0.9,0.9-0.9c0.5,0,0.9,0.4,0.9,0.9V45h17.9c1.3,0,2.4-1.1,2.4-2.4c0-1.3-1.1-2.4-2.4-2.4H19.7
					c-0.5,0-0.9-0.4-0.9-0.9v-6.7c0-2.5-2-4.5-4.5-4.5H8.3c-2.5,0-4.5,2-4.5,4.5V50C3.8,51.1,4.3,52.3,5.1,53.1z"/>
			</g>
		</g>
	</g>
	<g>
		<path class="st55" d="M54,46.9H32.5c-0.3,0-0.6-0.2-0.8-0.4c-0.2-0.3-0.2-0.6-0.1-0.9c0.1-0.3,0.4-0.5,0.7-0.6
			c1.1-0.2,1.9-1.2,1.9-2.4c0-0.4-0.1-0.9-0.4-1.3c-0.2-0.3-0.2-0.6-0.1-0.8l5.9-13.7c0.1-0.3,0.5-0.6,0.8-0.6h21.5
			c0.3,0,0.6,0.2,0.8,0.4c0.2,0.3,0.2,0.6,0.1,0.9l-8.1,18.8C54.7,46.6,54.4,46.9,54,46.9z M35.3,45h18.1l7.3-17H41.2l-5.5,12.8
			c0.3,0.6,0.4,1.2,0.4,1.8C36.1,43.5,35.8,44.3,35.3,45z"/>
	</g>
	<g>
		<path class="st55" d="M62.1,46.9H31.8c-0.5,0-0.9-0.4-0.9-0.9c0-0.5,0.4-1.1,0.9-1.1h30.3c0.5,0,0.9,0.4,0.9,0.9
			C63,46.4,62.6,46.9,62.1,46.9z"/>
	</g>
	<g>
		<path class="st55" d="M45.7,54.9h-0.1c-0.5,0-0.9-0.4-0.9-0.9v-8.1c0-0.5,0.4-0.9,0.9-0.9c0.5,0,1.1,0.4,1.1,0.9V54
			C46.6,54.5,46.2,54.9,45.7,54.9z M45.7,54L45.7,54L45.7,54z"/>
	</g>
</g>
</svg>
