<?xml version="1.0" encoding="utf-8"?>
<!-- Generator: Adobe Illustrator 24.2.1, SVG Export Plug-In . SVG Version: 6.00 Build 0)  -->
<svg version="1.1" id="Capa_1" xmlns="http://www.w3.org/2000/svg" xmlns:xlink="http://www.w3.org/1999/xlink" x="0px" y="0px"
	 viewBox="0 0 65 65" style="enable-background:new 0 0 65 65;" xml:space="preserve">
<style type="text/css">
	.st0{fill:#34444D;}
	.st1{fill:#B3B9BC;}
	.st2{fill:#FFFFFF;}
	.st3{fill:none;stroke:#FFFFFF;stroke-linejoin:round;stroke-miterlimit:10;}
	.st4{fill:none;stroke:#D9DCDE;stroke-miterlimit:10;}
	.st5{fill:none;stroke:#011520;stroke-width:2;stroke-linejoin:round;stroke-miterlimit:10;}
	.st6{fill:none;stroke:#011520;stroke-width:2;stroke-linecap:round;stroke-linejoin:round;stroke-miterlimit:10;}
	.st7{fill:none;stroke:#011520;stroke-width:2;stroke-miterlimit:10;}
	.st8{fill:none;stroke:#011520;stroke-width:2;stroke-linecap:round;stroke-miterlimit:10;}
	.st9{fill:none;stroke:#011520;stroke-width:2;stroke-linejoin:round;}
	.st10{fill:none;stroke:#011520;stroke-width:2;stroke-linecap:round;stroke-linejoin:round;}
	.st11{fill:none;stroke:#011520;stroke-width:2;}
	.st12{fill:#3D3D3D;}
	.st13{fill:none;stroke:#343434;stroke-width:1.8;stroke-linecap:round;stroke-linejoin:round;stroke-miterlimit:10;}
	.st14{fill:none;stroke:#2A2A2A;stroke-width:2;stroke-linecap:round;stroke-linejoin:round;stroke-miterlimit:10;}
	.st15{clip-path:url(#SVGID_2_);}
	
		.st16{clip-path:url(#SVGID_4_);fill:none;stroke:#2A2A2A;stroke-width:2;stroke-linecap:round;stroke-linejoin:round;stroke-miterlimit:10;}
	
		.st17{clip-path:url(#SVGID_6_);fill:none;stroke:#2A2A2A;stroke-width:2;stroke-linecap:round;stroke-linejoin:round;stroke-miterlimit:10;}
	.st18{clip-path:url(#SVGID_6_);}
	
		.st19{clip-path:url(#SVGID_8_);fill:none;stroke:#2A2A2A;stroke-width:2;stroke-linecap:round;stroke-linejoin:round;stroke-miterlimit:10;}
	.st20{clip-path:url(#SVGID_10_);}
	.st21{fill:none;stroke:#404046;stroke-width:2;stroke-linecap:round;stroke-miterlimit:10;}
	.st22{fill:none;stroke:#404046;stroke-width:2;stroke-linejoin:round;stroke-miterlimit:10;}
	.st23{fill:none;stroke:#404046;stroke-width:2;stroke-linecap:round;stroke-linejoin:round;stroke-miterlimit:10;}
	.st24{fill:none;stroke:#404046;stroke-width:2;stroke-miterlimit:10;}
	.st25{fill:#404046;}
	
		.st26{clip-path:url(#SVGID_12_);fill:none;stroke:#2A2A2A;stroke-width:2;stroke-linecap:round;stroke-linejoin:round;stroke-miterlimit:10;}
	
		.st27{clip-path:url(#SVGID_14_);fill:none;stroke:#2A2A2A;stroke-width:2;stroke-linecap:round;stroke-linejoin:round;stroke-miterlimit:10;}
	.st28{clip-path:url(#SVGID_14_);}
	.st29{clip-path:url(#SVGID_16_);}
	.st30{fill:none;}
	.st31{clip-path:url(#SVGID_18_);}
	.st32{fill:none;stroke:#394552;stroke-width:2.5;stroke-linecap:round;stroke-linejoin:round;stroke-miterlimit:10;}
	.st33{fill:none;stroke:#394552;stroke-width:2.5;stroke-linecap:round;stroke-miterlimit:10;}
	.st34{fill:none;stroke:#394552;stroke-width:2.5;stroke-miterlimit:10;}
	.st35{fill:none;stroke:#394552;stroke-width:2.5;stroke-linecap:round;stroke-linejoin:bevel;stroke-miterlimit:10;}
	.st36{fill:none;stroke:#394552;stroke-width:2.5;stroke-linejoin:round;stroke-miterlimit:10;}
	.st37{fill:#394552;stroke:#394552;stroke-width:2.5;stroke-miterlimit:10;}
	.st38{fill:none;stroke:#394552;stroke-width:2.5;stroke-linecap:round;}
	.st39{fill:none;stroke:#37464C;stroke-width:2;stroke-linecap:round;stroke-linejoin:round;}
	.st40{fill:none;stroke:#37464C;stroke-width:2;stroke-linejoin:round;}
	.st41{fill:none;stroke:#4D4D4D;stroke-width:2;stroke-linecap:round;stroke-linejoin:round;stroke-miterlimit:10;}
	.st42{fill:none;stroke:#4D4D4D;stroke-width:2;stroke-linejoin:round;stroke-miterlimit:10;}
	.st43{fill:none;stroke:#4D4D4D;stroke-width:2;stroke-miterlimit:10;}
	.st44{fill:none;stroke:#4D4D4D;stroke-width:2;stroke-linecap:round;stroke-miterlimit:10;}
	.st45{fill:#4D4D4D;}
	.st46{clip-path:url(#SVGID_20_);}
	.st47{fill:none;stroke:#403D37;stroke-width:4;stroke-linecap:round;stroke-linejoin:round;stroke-miterlimit:10;}
	.st48{fill:none;stroke:#3F3C36;stroke-width:4;stroke-linecap:round;stroke-linejoin:round;stroke-miterlimit:10;}
	.st49{fill:none;stroke:#403D37;stroke-width:4;stroke-miterlimit:10;}
	.st50{fill:#272525;}
	.st51{fill:none;stroke:#EE2B7B;stroke-width:1.3;stroke-linecap:round;stroke-linejoin:round;stroke-miterlimit:10;}
	.st52{fill:#EE2B7B;}
	.st53{fill:#FFFFFF;stroke:#EE2B7B;stroke-width:1.3;stroke-linecap:round;stroke-linejoin:round;stroke-miterlimit:10;}
	.st54{fill:none;stroke:#EE2B7B;stroke-width:0.5;stroke-linecap:round;stroke-linejoin:round;stroke-miterlimit:10;}
	.st55{fill:none;stroke:#EE2B7B;stroke-width:0.75;stroke-linecap:round;stroke-linejoin:round;stroke-miterlimit:10;}
	.st56{fill:none;stroke:#EE2B7B;stroke-linecap:round;stroke-linejoin:round;stroke-miterlimit:10;}
</style>
<g>
	<g>
		<path class="st52" d="M32.5,19.6c-3.3,0-6.1-2.7-6.1-6.1c0-3.3,2.7-6.1,6.1-6.1s6.1,2.7,6.1,6.1C38.6,16.9,35.8,19.6,32.5,19.6z
			 M32.5,9.3c-2.4,0-4.3,1.9-4.3,4.3c0,2.4,1.9,4.3,4.3,4.3s4.3-1.9,4.3-4.3C36.8,11.2,34.9,9.3,32.5,9.3z"/>
	</g>
	<g>
		<path class="st52" d="M40.7,28.8c-0.5,0-0.9-0.4-0.9-0.9c0-3.5-3.7-5.1-7.3-5.1s-7.3,1.6-7.3,5.1c0,0.5-0.4,0.9-0.9,0.9
			c-0.5,0-0.9-0.4-0.9-0.9c0-4.1,3.7-6.9,9.1-6.9c5.3,0,9.1,2.8,9.1,6.9C41.6,28.5,41.2,28.8,40.7,28.8z"/>
	</g>
	<g>
		<path class="st52" d="M32.5,46.3c-4.2,0-7.6-3.4-7.6-7.6s3.4-7.6,7.6-7.6c4.2,0,7.6,3.4,7.6,7.6S36.7,46.3,32.5,46.3z M32.5,32.9
			c-3.2,0-5.8,2.6-5.8,5.8s2.6,5.8,5.8,5.8c3.2,0,5.8-2.6,5.8-5.8S35.7,32.9,32.5,32.9z"/>
	</g>
	<g>
		<path class="st52" d="M43.1,57.5c-0.5,0-0.9-0.4-0.9-0.9c0-4.8-4.9-6.9-9.7-6.9s-9.7,2.1-9.7,6.9c0,0.5-0.4,0.9-0.9,0.9
			c-0.5,0-0.9-0.4-0.9-0.9c0-5.1,4.7-8.7,11.5-8.7S44,51.5,44,56.6C44,57.1,43.6,57.5,43.1,57.5z"/>
	</g>
	<g>
		<g>
			<g>
				<path class="st52" d="M10.8,37.7c-3.3,0-6.1-2.7-6.1-6.1c0-3.3,2.7-6.1,6.1-6.1c3.3,0,6.1,2.7,6.1,6.1
					C16.9,35,14.2,37.7,10.8,37.7z M10.8,27.4c-2.4,0-4.3,1.9-4.3,4.3c0,2.4,1.9,4.3,4.3,4.3c2.4,0,4.3-1.9,4.3-4.3
					C15.1,29.3,13.2,27.4,10.8,27.4z"/>
			</g>
			<g>
				<path class="st52" d="M19,47c-0.5,0-0.9-0.4-0.9-0.9c0-3.5-3.7-5.1-7.3-5.1c-3.6,0-7.3,1.6-7.3,5.1c0,0.5-0.4,0.9-0.9,0.9
					s-0.9-0.4-0.9-0.9c0-4.1,3.7-6.9,9.1-6.9c5.3,0,9.1,2.8,9.1,6.9C19.9,46.6,19.5,47,19,47z"/>
			</g>
		</g>
		<g>
			<g>
				<path class="st52" d="M54.2,37.7c-3.3,0-6.1-2.7-6.1-6.1c0-3.3,2.7-6.1,6.1-6.1c3.3,0,6.1,2.7,6.1,6.1
					C60.2,35,57.5,37.7,54.2,37.7z M54.2,27.4c-2.4,0-4.3,1.9-4.3,4.3c0,2.4,1.9,4.3,4.3,4.3c2.4,0,4.3-1.9,4.3-4.3
					C58.5,29.3,56.5,27.4,54.2,27.4z"/>
			</g>
			<g>
				<path class="st52" d="M62.4,47c-0.5,0-0.9-0.4-0.9-0.9c0-3.5-3.7-5.1-7.3-5.1c-3.6,0-7.3,1.6-7.3,5.1c0,0.5-0.4,0.9-0.9,0.9
					s-0.9-0.4-0.9-0.9c0-4.1,3.7-6.9,9.1-6.9c5.3,0,9.1,2.8,9.1,6.9C63.2,46.6,62.8,47,62.4,47z"/>
			</g>
		</g>
	</g>
</g>
</svg>
