<?xml version="1.0" encoding="utf-8"?>
<!-- Generator: Adobe Illustrator 24.2.1, SVG Export Plug-In . SVG Version: 6.00 Build 0)  -->
<svg version="1.1" id="Capa_1" xmlns="http://www.w3.org/2000/svg" xmlns:xlink="http://www.w3.org/1999/xlink" x="0px" y="0px"
	 viewBox="0 0 65 65" style="enable-background:new 0 0 65 65;" xml:space="preserve">
<style type="text/css">
	.st0{fill:none;stroke:#37464C;stroke-width:2;stroke-linecap:round;stroke-linejoin:round;}
	.st1{fill:none;stroke:#37464C;stroke-width:2;stroke-linejoin:round;}
	.st2{fill:none;stroke:#403D37;stroke-width:4;stroke-linecap:round;stroke-linejoin:round;stroke-miterlimit:10;}
	.st3{fill:#34444D;}
	.st4{fill:#B3B9BC;}
	.st5{fill:#FFFFFF;}
	.st6{fill:none;stroke:#FFFFFF;stroke-linejoin:round;stroke-miterlimit:10;}
	.st7{fill:none;stroke:#D9DCDE;stroke-miterlimit:10;}
	.st8{fill:none;stroke:#011520;stroke-width:2;stroke-linejoin:round;stroke-miterlimit:10;}
	.st9{fill:none;stroke:#011520;stroke-width:2;stroke-linecap:round;stroke-linejoin:round;stroke-miterlimit:10;}
	.st10{fill:none;stroke:#011520;stroke-width:2;stroke-miterlimit:10;}
	.st11{fill:none;stroke:#011520;stroke-width:2;stroke-linecap:round;stroke-miterlimit:10;}
	.st12{fill:none;stroke:#011520;stroke-width:2;stroke-linejoin:round;}
	.st13{fill:none;stroke:#011520;stroke-width:2;stroke-linecap:round;stroke-linejoin:round;}
	.st14{fill:none;stroke:#011520;stroke-width:2;}
	.st15{fill:#3D3D3D;}
	.st16{fill:none;stroke:#343434;stroke-width:1.8;stroke-linecap:round;stroke-linejoin:round;stroke-miterlimit:10;}
	.st17{fill:none;stroke:#2A2A2A;stroke-width:2;stroke-linecap:round;stroke-linejoin:round;stroke-miterlimit:10;}
	.st18{clip-path:url(#SVGID_2_);}
	
		.st19{clip-path:url(#SVGID_4_);fill:none;stroke:#2A2A2A;stroke-width:2;stroke-linecap:round;stroke-linejoin:round;stroke-miterlimit:10;}
	
		.st20{clip-path:url(#SVGID_6_);fill:none;stroke:#2A2A2A;stroke-width:2;stroke-linecap:round;stroke-linejoin:round;stroke-miterlimit:10;}
	.st21{clip-path:url(#SVGID_6_);}
	
		.st22{clip-path:url(#SVGID_8_);fill:none;stroke:#2A2A2A;stroke-width:2;stroke-linecap:round;stroke-linejoin:round;stroke-miterlimit:10;}
	.st23{clip-path:url(#SVGID_10_);}
	.st24{fill:none;stroke:#404046;stroke-width:2;stroke-linecap:round;stroke-miterlimit:10;}
	.st25{fill:none;stroke:#404046;stroke-width:2;stroke-linejoin:round;stroke-miterlimit:10;}
	.st26{fill:none;stroke:#404046;stroke-width:2;stroke-linecap:round;stroke-linejoin:round;stroke-miterlimit:10;}
	.st27{fill:none;stroke:#404046;stroke-width:2;stroke-miterlimit:10;}
	.st28{fill:#404046;}
	
		.st29{clip-path:url(#SVGID_12_);fill:none;stroke:#2A2A2A;stroke-width:2;stroke-linecap:round;stroke-linejoin:round;stroke-miterlimit:10;}
	
		.st30{clip-path:url(#SVGID_14_);fill:none;stroke:#2A2A2A;stroke-width:2;stroke-linecap:round;stroke-linejoin:round;stroke-miterlimit:10;}
	.st31{clip-path:url(#SVGID_14_);}
	.st32{clip-path:url(#SVGID_16_);}
	.st33{fill:none;}
	.st34{clip-path:url(#SVGID_18_);}
	
		.st35{fill-rule:evenodd;clip-rule:evenodd;fill:none;stroke:#343434;stroke-width:1.8;stroke-linecap:round;stroke-linejoin:round;stroke-miterlimit:10;}
	.st36{fill:none;stroke:#394552;stroke-width:2.5;stroke-linecap:round;stroke-linejoin:round;stroke-miterlimit:10;}
	.st37{fill:none;stroke:#394552;stroke-width:2.5;stroke-linecap:round;stroke-miterlimit:10;}
	.st38{fill:none;stroke:#394552;stroke-width:2.5;stroke-miterlimit:10;}
	.st39{fill:none;stroke:#394552;stroke-width:2.5;stroke-linecap:round;stroke-linejoin:bevel;stroke-miterlimit:10;}
	.st40{fill:none;stroke:#394552;stroke-width:2.5;stroke-linejoin:round;stroke-miterlimit:10;}
	.st41{fill:#394552;stroke:#394552;stroke-width:2.5;stroke-miterlimit:10;}
	.st42{fill:none;stroke:#394552;stroke-width:2.5;stroke-linecap:round;}
	.st43{fill:none;stroke:#EE2B7B;stroke-linecap:round;stroke-linejoin:round;stroke-miterlimit:10;}
	.st44{fill:none;stroke:#4D4D4D;stroke-width:2;stroke-linecap:round;stroke-linejoin:round;stroke-miterlimit:10;}
	.st45{fill:none;stroke:#4D4D4D;stroke-width:2;stroke-linejoin:round;stroke-miterlimit:10;}
	.st46{fill:none;stroke:#4D4D4D;stroke-width:2;stroke-miterlimit:10;}
	.st47{fill:none;stroke:#4D4D4D;stroke-width:2;stroke-linecap:round;stroke-miterlimit:10;}
	.st48{fill:#4D4D4D;}
	.st49{clip-path:url(#SVGID_20_);}
	.st50{fill:none;stroke:#3F3C36;stroke-width:4;stroke-linecap:round;stroke-linejoin:round;stroke-miterlimit:10;}
	.st51{fill:none;stroke:#403D37;stroke-width:4;stroke-miterlimit:10;}
	.st52{fill:#272525;}
	.st53{fill:none;stroke:#EE2B7B;stroke-width:1.3;stroke-linecap:round;stroke-linejoin:round;stroke-miterlimit:10;}
	.st54{fill:#FFFFFF;stroke:#EE2B7B;stroke-width:1.3;stroke-linecap:round;stroke-linejoin:round;stroke-miterlimit:10;}
	.st55{fill:#EE2B7B;}
	.st56{fill:none;stroke:#EE2B7B;stroke-width:0.75;stroke-linecap:round;stroke-linejoin:round;stroke-miterlimit:10;}
</style>
<g>
	<g>
		<path class="st55" d="M8.9,32.7c-0.1,0-0.2,0-0.3,0c-0.8-0.1-1.5-0.5-1.9-1.1C6.1,31,5.9,30.2,6,29.5C6.5,25,8.2,20.6,11,16.9
			c0.2-0.3,0.7-0.4,1-0.2c0.3,0.2,0.4,0.7,0.2,1C9.6,21.3,8,25.4,7.5,29.6c0,0.4,0.1,0.7,0.3,1C8,31,8.4,31.2,8.8,31.2
			c0.7,0.1,1.5-0.5,1.6-1.2c0.4-3.9,1.9-7.6,4.3-10.8c0.2-0.3,0.7-0.4,1.1-0.1c0.3,0.2,0.4,0.7,0.1,1.1c-2.2,3-3.6,6.5-4,10.1
			C11.6,31.6,10.4,32.7,8.9,32.7z"/>
	</g>
	<g>
		<path class="st55" d="M19.6,16c-0.2,0-0.5-0.1-0.6-0.3c-0.2-0.3-0.2-0.8,0.1-1.1c3.2-2.4,6.9-3.9,10.8-4.3c0.4,0,0.7-0.2,0.9-0.5
			c0.2-0.3,0.3-0.7,0.3-1c0-0.4-0.2-0.7-0.5-0.9c-0.3-0.2-0.7-0.3-1-0.3c-4.2,0.5-8.4,2.1-11.9,4.7c-0.3,0.2-0.8,0.2-1-0.2
			c-0.2-0.3-0.2-0.8,0.2-1C20.6,8.2,25,6.5,29.5,6c0.8-0.1,1.5,0.1,2.1,0.6c0.6,0.5,1,1.2,1.1,2c0.1,0.8-0.1,1.5-0.6,2.1
			c-0.5,0.6-1.2,1-1.9,1.1c-3.6,0.4-7.1,1.8-10.1,4C19.9,15.9,19.8,16,19.6,16z"/>
	</g>
	<g>
		<path class="st55" d="M35.2,59c-1.5,0-2.7-1.1-2.9-2.6c-0.1-0.8,0.1-1.5,0.6-2.1c0.5-0.6,1.2-1,1.9-1.1c3.6-0.4,7.1-1.8,10.1-4
			c0.3-0.2,0.8-0.2,1.1,0.1c0.2,0.3,0.2,0.8-0.1,1.1c-3.2,2.4-6.9,3.9-10.8,4.3c-0.4,0-0.7,0.2-0.9,0.5c-0.2,0.3-0.3,0.7-0.3,1
			c0.1,0.8,0.8,1.3,1.6,1.2c4.2-0.5,8.4-2.1,11.9-4.7c0.3-0.2,0.8-0.2,1,0.2c0.2,0.3,0.2,0.8-0.2,1c-3.7,2.7-8.1,4.4-12.6,4.9
			C35.4,59,35.3,59,35.2,59z"/>
	</g>
	<g>
		<path class="st55" d="M53.4,48.4c-0.2,0-0.3,0-0.4-0.1c-0.3-0.2-0.4-0.7-0.2-1c2.6-3.5,4.2-7.6,4.7-11.9c0.1-0.8-0.5-1.5-1.2-1.6
			c-0.4,0-0.7,0.1-1,0.3c-0.3,0.2-0.5,0.6-0.5,0.9c-0.4,3.9-1.9,7.6-4.3,10.8c-0.2,0.3-0.7,0.4-1.1,0.1c-0.3-0.2-0.4-0.7-0.1-1.1
			c2.2-3,3.6-6.5,4-10.1c0.1-0.8,0.5-1.5,1.1-1.9c0.6-0.5,1.4-0.7,2.1-0.6c1.6,0.2,2.7,1.6,2.6,3.2c-0.5,4.5-2.2,8.9-4.9,12.6
			C53.9,48.3,53.7,48.4,53.4,48.4z"/>
	</g>
	<g>
		<path class="st55" d="M11.6,48.4c-0.2,0-0.5-0.1-0.6-0.3C8.2,44.4,6.5,40,6,35.5c-0.1-0.8,0.1-1.5,0.6-2.1c0.5-0.6,1.2-1,1.9-1.1
			c0.8-0.1,1.5,0.1,2.1,0.6c0.6,0.5,1,1.2,1.1,1.9c0.4,3.6,1.8,7.1,4,10.1c0.2,0.3,0.2,0.8-0.1,1.1c-0.3,0.2-0.8,0.2-1.1-0.1
			c-2.4-3.2-3.9-6.9-4.3-10.8c0-0.4-0.2-0.7-0.5-0.9c-0.3-0.2-0.7-0.3-1-0.3c-0.4,0-0.7,0.2-0.9,0.5c-0.2,0.3-0.3,0.7-0.3,1
			c0.5,4.2,2.1,8.3,4.7,11.9c0.2,0.3,0.2,0.8-0.2,1C11.9,48.4,11.7,48.4,11.6,48.4z"/>
	</g>
	<g>
		<path class="st55" d="M29.8,59c-0.1,0-0.2,0-0.3,0c-4.5-0.5-8.9-2.2-12.6-4.9c-0.3-0.2-0.4-0.7-0.2-1c0.2-0.3,0.7-0.4,1-0.2
			c3.5,2.6,7.6,4.2,11.9,4.7c0.8,0.1,1.5-0.5,1.6-1.2c0-0.4-0.1-0.7-0.3-1c-0.2-0.3-0.6-0.5-0.9-0.5c-3.9-0.4-7.6-1.9-10.8-4.3
			c-0.3-0.2-0.4-0.7-0.1-1.1c0.2-0.3,0.7-0.4,1.1-0.1c3,2.2,6.5,3.6,10.1,4c0.8,0.1,1.5,0.5,1.9,1.1c0.5,0.6,0.7,1.4,0.6,2.1
			C32.5,57.9,31.3,59,29.8,59z"/>
	</g>
	<g>
		<path class="st55" d="M45.4,16c-0.2,0-0.3,0-0.4-0.1c-3-2.2-6.5-3.6-10.1-4c-0.8-0.1-1.5-0.5-1.9-1.1c-0.5-0.6-0.7-1.4-0.6-2.1
			c0.1-0.8,0.5-1.5,1.1-1.9C34,6.1,34.8,5.9,35.5,6C40,6.5,44.4,8.2,48.1,11c0.3,0.2,0.4,0.7,0.2,1c-0.2,0.3-0.7,0.4-1,0.2
			C43.7,9.6,39.6,8,35.4,7.5c-0.4,0-0.7,0.1-1,0.3C34,8,33.8,8.4,33.8,8.8c0,0.4,0.1,0.7,0.3,1c0.2,0.3,0.6,0.5,0.9,0.5
			c3.9,0.4,7.6,1.9,10.8,4.3c0.3,0.2,0.4,0.7,0.1,1.1C45.8,15.9,45.6,16,45.4,16z"/>
	</g>
	<g>
		<path class="st55" d="M56.1,32.7c-1.5,0-2.7-1.1-2.9-2.6c-0.4-3.6-1.8-7.1-4-10.1c-0.2-0.3-0.2-0.8,0.1-1.1
			c0.3-0.2,0.8-0.2,1.1,0.1c2.4,3.2,3.9,6.9,4.3,10.8c0.1,0.8,0.8,1.3,1.6,1.2c0.8-0.1,1.3-0.8,1.2-1.6c-0.5-4.2-2.1-8.4-4.7-11.9
			c-0.2-0.3-0.2-0.8,0.2-1c0.3-0.2,0.8-0.2,1,0.2c2.7,3.7,4.4,8.1,4.9,12.6c0.2,1.6-1,3-2.6,3.2C56.3,32.7,56.2,32.7,56.1,32.7z"/>
	</g>
	<g>
		<path class="st55" d="M15.3,20.4c-2.8,0-5-2.3-5-5s2.3-5,5-5s5,2.3,5,5S18.1,20.4,15.3,20.4z M15.3,11.8c-2,0-3.5,1.6-3.5,3.5
			s1.6,3.5,3.5,3.5s3.5-1.6,3.5-3.5S17.3,11.8,15.3,11.8z"/>
	</g>
	<g>
		<path class="st55" d="M49.7,54.7c-2.8,0-5-2.3-5-5s2.3-5,5-5c2.8,0,5,2.3,5,5S52.4,54.7,49.7,54.7z M49.7,46.1
			c-2,0-3.5,1.6-3.5,3.5s1.6,3.5,3.5,3.5c2,0,3.5-1.6,3.5-3.5S51.6,46.1,49.7,46.1z"/>
	</g>
	<g>
		<path class="st55" d="M15.3,54.7c-2.8,0-5-2.3-5-5s2.3-5,5-5s5,2.3,5,5S18.1,54.7,15.3,54.7z M15.3,46.1c-2,0-3.5,1.6-3.5,3.5
			s1.6,3.5,3.5,3.5s3.5-1.6,3.5-3.5S17.3,46.1,15.3,46.1z"/>
	</g>
	<g>
		<path class="st55" d="M49.7,20.4c-2.8,0-5-2.3-5-5s2.3-5,5-5c2.8,0,5,2.3,5,5S52.4,20.4,49.7,20.4z M49.7,11.8
			c-2,0-3.5,1.6-3.5,3.5s1.6,3.5,3.5,3.5c2,0,3.5-1.6,3.5-3.5S51.6,11.8,49.7,11.8z"/>
	</g>
	<g>
		<path class="st55" d="M32.5,49.3c-9.3,0-16.8-7.6-16.8-16.8c0-9.3,7.6-16.8,16.8-16.8s16.8,7.6,16.8,16.8
			C49.3,41.8,41.8,49.3,32.5,49.3z M32.5,17.2c-8.5,0-15.3,6.9-15.3,15.3c0,8.5,6.9,15.3,15.3,15.3S47.8,41,47.8,32.5
			C47.8,24,41,17.2,32.5,17.2z"/>
	</g>
	<g>
		<path class="st55" d="M32.5,49.3c-4.9,0-8.8-7.4-8.8-16.8c0-9.4,3.9-16.8,8.8-16.8s8.8,7.4,8.8,16.8
			C41.3,41.9,37.4,49.3,32.5,49.3z M32.5,17.2c-4,0-7.3,7-7.3,15.3s3.3,15.3,7.3,15.3s7.3-7,7.3-15.3S36.5,17.2,32.5,17.2z"/>
	</g>
	<g>
		<path class="st55" d="M32.5,25.7c-4.5,0-9-0.6-13.4-1.7c-0.4-0.1-0.6-0.5-0.5-0.9c0.1-0.4,0.5-0.6,0.9-0.5
			c8.6,2.2,17.5,2.2,26.1,0c0.4-0.1,0.8,0.1,0.9,0.5c0.1,0.4-0.1,0.8-0.5,0.9C41.5,25.2,37,25.7,32.5,25.7z"/>
	</g>
	<g>
		<path class="st55" d="M45.7,42.4c-0.1,0-0.1,0-0.2,0c-8.6-2.2-17.5-2.2-26.1,0c-0.4,0.1-0.8-0.1-0.9-0.5c-0.1-0.4,0.1-0.8,0.5-0.9
			c8.9-2.2,18-2.2,26.8,0c0.4,0.1,0.6,0.5,0.5,0.9C46.4,42.2,46.1,42.4,45.7,42.4z"/>
	</g>
	<g>
		<path class="st55" d="M48.6,33.3H16.4c-0.4,0-0.8-0.3-0.8-0.8s0.3-0.8,0.8-0.8h32.2c0.4,0,0.8,0.3,0.8,0.8S49,33.3,48.6,33.3z"/>
	</g>
	<g>
		<path class="st55" d="M32.5,49.3c-0.4,0-0.8-0.3-0.8-0.8V16.4c0-0.4,0.3-0.8,0.8-0.8s0.8,0.3,0.8,0.8v32.2
			C33.3,49,32.9,49.3,32.5,49.3z"/>
	</g>
</g>
</svg>
